<?xml version="1.0" encoding="utf-8"?>
<!-- Generator: Avocode 2.6.0 - http://avocode.com -->
<svg height="50" width="51" xmlns:xlink="http://www.w3.org/1999/xlink" xmlns="http://www.w3.org/2000/svg" viewBox="0 0 51 50">
    <path fill="#e6e6e6" fill-rule="evenodd" d="M 25.46 0.02 C 11.86 0.02 0.83 11.04 0.83 24.64 C 0.83 38.24 11.86 49.26 25.46 49.26 C 39.06 49.26 50.08 38.24 50.08 24.64 C 50.08 11.04 39.06 0.02 25.46 0.02 L 25.46 0.02 Z M 39.61 29.88 C 38.91 32.28 37.59 34.52 35.75 36.21 C 34 37.82 31.81 38.93 29.5 39.46 C 26.95 40.04 24.24 40.06 21.7 39.38 C 19.69 38.84 17.79 37.88 16.16 36.58 C 14.43 35.21 13.01 33.46 12.01 31.49 C 10.48 28.47 10.01 24.94 10.69 21.63 C 10.96 20.3 11.4 19 12.01 17.79 C 13.77 14.28 16.94 11.5 20.66 10.22 C 23.96 9.08 27.65 9.11 30.93 10.31 C 32.75 10.98 34.42 12.04 35.84 13.35 C 35.36 13.87 34.85 14.35 34.36 14.85 C 33.42 15.79 32.49 16.73 31.55 17.66 C 30.62 16.77 29.49 16.1 28.26 15.73 C 26.82 15.29 25.26 15.23 23.78 15.54 C 22.06 15.91 20.46 16.81 19.23 18.07 C 18.23 19.08 17.47 20.33 17.01 21.67 C 16.36 23.58 16.36 25.7 17.01 27.61 C 17.65 29.49 18.88 31.15 20.51 32.29 C 21.52 33.01 22.68 33.52 23.9 33.76 C 25.1 34 26.34 33.98 27.54 33.77 C 28.74 33.56 29.89 33.12 30.9 32.45 C 32.5 31.37 33.63 29.64 33.96 27.73 C 31.18 27.73 28.41 27.73 25.64 27.73 C 25.64 25.75 25.64 23.77 25.64 21.78 C 30.43 21.78 35.21 21.78 40 21.78 C 40.47 24.46 40.37 27.26 39.61 29.88 L 39.61 29.88 Z M 39.61 29.88" />
</svg>