<?xml version="1.0" encoding="utf-8"?>
<!-- Generator: Avocode 2.6.0 - http://avocode.com -->
<svg height="30" width="30" xmlns:xlink="http://www.w3.org/1999/xlink" xmlns="http://www.w3.org/2000/svg" viewBox="0 0 30 30">
    <path stroke-linejoin="miter" stroke-linecap="butt" stroke-width="1.25" stroke="#000000" fill="none" fill-rule="evenodd" d="M 20.61 18.43 L 28.63 26.45 C 29.22 27.03 29.22 27.97 28.63 28.56 L 28.63 28.56 C 28.05 29.14 27.11 29.14 26.52 28.56 L 18.5 20.54" />
    <path stroke-linejoin="miter" stroke-linecap="butt" stroke-width="1.25" stroke="#000000" fill="none" fill-rule="evenodd" d="M 11.92 22.75 C 17.94 22.75 22.83 17.87 22.83 11.84 C 22.83 5.82 17.94 0.94 11.92 0.94 C 5.89 0.94 1.01 5.82 1.01 11.84 C 1.01 17.87 5.89 22.75 11.92 22.75 Z M 11.92 22.75" />
    <path stroke-linejoin="miter" stroke-linecap="butt" stroke-width="1.25" stroke="#000000" fill="none" fill-rule="evenodd" d="M 12.63 4.34 C 10.53 4.27 8.4 5.03 6.8 6.63 C 5.19 8.23 4.43 10.36 4.5 12.46" />
</svg>