<?xml version="1.0" encoding="utf-8"?>
<!-- Generator: Avocode 2.6.0 - http://avocode.com -->
<svg height="50" width="50" xmlns:xlink="http://www.w3.org/1999/xlink" xmlns="http://www.w3.org/2000/svg" viewBox="0 0 50 50">
    <path fill="#e6e6e6" fill-rule="evenodd" d="M 25.35 0.16 C 11.75 0.16 0.72 11.18 0.72 24.78 C 0.72 38.38 11.75 49.4 25.35 49.4 C 38.95 49.4 49.97 38.38 49.97 24.78 C 49.97 11.18 38.95 0.16 25.35 0.16 L 25.35 0.16 Z M 31.86 24.68 L 27.6 24.68 L 27.6 39.89 L 21.28 39.89 L 21.28 24.68 L 18.27 24.68 L 18.27 19.31 L 21.28 19.31 L 21.28 15.83 C 21.28 13.34 22.46 9.45 27.66 9.45 L 32.34 9.47 L 32.34 14.69 L 28.94 14.69 C 28.39 14.69 27.6 14.96 27.6 16.15 L 27.6 19.31 L 32.42 19.31 L 31.86 24.68 L 31.86 24.68 Z M 31.86 24.68" />
</svg>