<?xml version="1.0" encoding="utf-8"?>
<!-- Generator: Avocode 2.6.0 - http://avocode.com -->
<svg height="32" width="31" xmlns:xlink="http://www.w3.org/1999/xlink" xmlns="http://www.w3.org/2000/svg" viewBox="0 0 31 32">
    <path stroke-linejoin="miter" stroke-linecap="butt" stroke-width="1.290322580645161" stroke="#e6e6e6" fill="none" fill-rule="evenodd" d="M 8.67 30.38 L 9.37 24.07 L 2.98 24.07 L 3.69 30.38" />
    <path stroke-linejoin="miter" stroke-linecap="butt" stroke-width="1.290322580645161" stroke="#e6e6e6" fill="none" fill-rule="evenodd" d="M 15.21 1.05 L 29.41 1.05 L 29.41 30.45 L 15.21 30.45 L 15.21 1.05 Z M 15.21 1.05" />
    <path stroke-linejoin="miter" stroke-linecap="butt" stroke-width="1.290322580645161" stroke="#e6e6e6" fill="none" fill-rule="evenodd" d="M 30.7 30.45 L 1.02 30.45" />
    <path stroke-linejoin="miter" stroke-linecap="butt" stroke-width="1.290322580645161" stroke="#e6e6e6" fill="none" fill-rule="evenodd" d="M 19.03 17.51 C 19.64 17.51 20.14 17.02 20.14 16.41 C 20.14 15.81 19.64 15.32 19.03 15.32 C 18.42 15.32 17.92 15.81 17.92 16.41 C 17.92 17.02 18.42 17.51 19.03 17.51 Z M 19.03 17.51" />
    <path stroke-linejoin="miter" stroke-linecap="butt" stroke-width="1.290322580645161" stroke="#e6e6e6" fill="none" fill-rule="evenodd" d="M 1.33 14.12 C 1.33 16.62 3.66 18.46 6.19 18.46 C 6.19 15.96 3.85 14.12 1.33 14.12 L 1.33 14.12 Z M 1.33 14.12" />
    <path stroke-linejoin="miter" stroke-linecap="butt" stroke-width="1.290322580645161" stroke="#e6e6e6" fill="none" fill-rule="evenodd" d="M 12.58 15.12 C 8.9 15.12 6.19 17.61 6.19 20.3 C 9.86 20.3 12.58 17.81 12.58 15.12 L 12.58 15.12 Z M 12.58 15.12" />
    <path stroke-linejoin="miter" stroke-linecap="butt" stroke-width="1.290322580645161" stroke="#e6e6e6" fill="none" fill-rule="evenodd" d="M 10.94 9.49 C 8.2 9.49 6.19 11.34 6.19 13.34 C 8.92 13.34 10.94 11.49 10.94 9.49 L 10.94 9.49 Z M 10.94 9.49" />
    <path stroke-linejoin="miter" stroke-linecap="butt" stroke-width="1.290322580645161" stroke="#e6e6e6" fill="none" fill-rule="evenodd" d="M 6.19 8.77 L 6.19 24.07" />
</svg>