<?xml version="1.0" encoding="utf-8"?>
<!-- Generator: Avocode 2.6.0 - http://avocode.com -->
<svg height="31" width="24" xmlns:xlink="http://www.w3.org/1999/xlink" xmlns="http://www.w3.org/2000/svg" viewBox="0 0 24 31">
    <path stroke-linejoin="miter" stroke-linecap="butt" stroke-width="1.290322580645161" stroke="#e6e6e6" fill="none" fill-rule="evenodd" d="M 22.77 13.95 C 22.77 11.37 20.53 9.05 17.78 9.05 C 15.03 9.05 12.8 11.37 12.8 13.95 L 22.77 13.95 L 22.77 13.95 Z M 22.77 13.95" />
    <path stroke-linejoin="miter" stroke-linecap="butt" stroke-width="1.290322580645161" stroke="#e6e6e6" fill="none" fill-rule="evenodd" d="M 17.78 9.05 C 17.78 5.15 15.04 1.07 10.49 1.19 C 6.52 1.3 3.3 4.22 3.3 8.12 L 3.3 29.43" />
    <path stroke-linejoin="miter" stroke-linecap="butt" stroke-width="1.290322580645161" stroke="#e6e6e6" fill="none" fill-rule="evenodd" d="M 0.02 29.43 L 6.59 29.43" />
    <path stroke-linejoin="miter" stroke-linecap="butt" stroke-width="1.290322580645161" stroke="#e6e6e6" fill="none" fill-rule="evenodd" d="M 17.76 21.5 L 17.76 23.37" />
    <path stroke-linejoin="miter" stroke-linecap="butt" stroke-width="1.290322580645161" stroke="#e6e6e6" fill="none" fill-rule="evenodd" d="M 15.02 20.13 L 13.21 21.96" />
    <path stroke-linejoin="miter" stroke-linecap="butt" stroke-width="1.290322580645161" stroke="#e6e6e6" fill="none" fill-rule="evenodd" d="M 20.5 20.13 L 22.31 21.96" />
    <path stroke-linejoin="miter" stroke-linecap="butt" stroke-width="1.290322580645161" stroke="#e6e6e6" fill="none" fill-rule="evenodd" d="M 15.77 16.43 C 15.77 17.63 16.72 18.61 17.89 18.61 C 19.06 18.61 20.01 17.63 20.01 16.43" />
</svg>