<?xml version="1.0" encoding="utf-8"?>
<!-- Generator: Avocode 2.6.0 - http://avocode.com -->
<svg height="49" width="37" xmlns:xlink="http://www.w3.org/1999/xlink" xmlns="http://www.w3.org/2000/svg" viewBox="0 0 37 49">
    <path stroke-linejoin="miter" stroke-linecap="butt" stroke-width="2" stroke="#000000" fill="none" fill-rule="evenodd" d="M 27.01 1.01 L 27.01 9.01 L 35.01 9.01" />
    <path stroke-linejoin="miter" stroke-linecap="butt" stroke-width="2" stroke="#000000" fill="none" fill-rule="evenodd" d="M 35.01 45.41 C 35.01 46.28 34.3 47.01 33.43 47.01 L 2.58 47.01 C 1.71 47.01 1.01 46.28 1.01 45.41 L 1.01 2.62 C 1.01 1.75 1.71 1.01 2.58 1.01 L 27.01 1.01 C 27.42 1.01 27.62 1.19 27.91 1.48 L 34.54 8.02 C 34.84 8.31 35.01 8.59 35.01 9.01 L 35.01 45.41 L 35.01 45.41 Z M 35.01 45.41" />
    <path stroke-linejoin="miter" stroke-linecap="butt" stroke-width="2" stroke="#000000" fill="none" fill-rule="evenodd" d="M 30.11 17.03 L 6.06 17.03 C 5.57 17.03 5.16 17.41 5.16 17.88 L 5.16 34.17 C 5.16 34.64 5.57 35.02 6.06 35.02 L 30.11 35.02 C 30.61 35.02 31.01 34.64 31.01 34.17 L 31.01 17.88 C 31.01 17.41 30.61 17.03 30.11 17.03 L 30.11 17.03 Z M 30.11 17.03" />
    <path stroke-linejoin="miter" stroke-linecap="butt" stroke-width="2" stroke="#000000" fill="none" fill-rule="evenodd" d="M 11.66 26.02 C 12.99 26.02 14.07 25 14.07 23.74 C 14.07 22.48 12.99 21.45 11.66 21.45 C 10.33 21.45 9.25 22.48 9.25 23.74 C 9.25 25 10.33 26.02 11.66 26.02 Z M 11.66 26.02" />
    <path stroke-linejoin="miter" stroke-linecap="butt" stroke-width="2" stroke="#000000" fill="none" fill-rule="evenodd" d="M 10.56 34.93 L 18.53 24.62 L 21.76 28.75 L 25.91 22.56 L 30.99 29.48" />
</svg>