<?xml version="1.0" encoding="utf-8"?>
<!-- Generator: Avocode 2.6.0 - http://avocode.com -->
<svg height="50" width="50" xmlns:xlink="http://www.w3.org/1999/xlink" xmlns="http://www.w3.org/2000/svg" viewBox="0 0 50 50">
    <path fill="#e6e6e6" fill-rule="evenodd" d="M 25.35 0.16 C 11.75 0.16 0.72 11.18 0.72 24.78 C 0.72 38.38 11.75 49.4 25.35 49.4 C 38.95 49.4 49.97 38.38 49.97 24.78 C 49.97 11.18 38.95 0.16 25.35 0.16 L 25.35 0.16 Z M 37.75 19.82 C 37.76 20.08 37.77 20.35 37.77 20.62 C 37.77 28.82 31.53 38.28 20.11 38.28 C 16.61 38.28 13.35 37.25 10.6 35.49 C 11.09 35.55 11.58 35.57 12.08 35.57 C 14.99 35.57 17.66 34.58 19.79 32.92 C 17.07 32.87 14.78 31.07 13.99 28.61 C 14.37 28.68 14.76 28.72 15.16 28.72 C 15.72 28.72 16.27 28.64 16.79 28.5 C 13.95 27.93 11.81 25.42 11.81 22.42 C 11.81 22.39 11.81 22.36 11.82 22.34 C 12.65 22.8 13.61 23.08 14.63 23.11 C 12.96 22 11.87 20.1 11.87 17.95 C 11.87 16.81 12.17 15.74 12.71 14.83 C 15.77 18.58 20.34 21.05 25.5 21.31 C 25.39 20.86 25.34 20.38 25.34 19.9 C 25.34 16.47 28.11 13.69 31.54 13.69 C 33.33 13.69 34.94 14.45 36.07 15.65 C 37.49 15.37 38.81 14.86 40.01 14.15 C 39.55 15.6 38.56 16.81 37.28 17.58 C 38.54 17.43 39.74 17.09 40.85 16.6 C 40.02 17.85 38.96 18.94 37.75 19.82 L 37.75 19.82 Z M 37.75 19.82" />
</svg>