<?xml version="1.0" encoding="utf-8"?>
<!-- Generator: Avocode 2.6.0 - http://avocode.com -->
<svg height="58" width="56" xmlns:xlink="http://www.w3.org/1999/xlink" xmlns="http://www.w3.org/2000/svg" viewBox="0 0 56 58">
    <path stroke-linejoin="miter" stroke-linecap="butt" stroke-width="2.365591397849462" stroke="#e6e6e6" fill="none" fill-rule="evenodd" d="M 15.05 56.02 L 16.35 44.43 L 4.63 44.43 L 5.93 56.02" />
    <path stroke-linejoin="miter" stroke-linecap="butt" stroke-width="2.365591397849462" stroke="#e6e6e6" fill="none" fill-rule="evenodd" d="M 27.06 2.08 L 53.08 2.08 L 53.08 56.15 L 27.06 56.15 L 27.06 2.08 Z M 27.06 2.08" />
    <path stroke-linejoin="miter" stroke-linecap="butt" stroke-width="2.365591397849462" stroke="#e6e6e6" fill="none" fill-rule="evenodd" d="M 55.44 56.15 L 1.03 56.15" />
    <path stroke-linejoin="miter" stroke-linecap="butt" stroke-width="2.365591397849462" stroke="#e6e6e6" fill="none" fill-rule="evenodd" d="M 34.06 32.36 C 35.18 32.36 36.09 31.46 36.09 30.34 C 36.09 29.23 35.18 28.32 34.06 28.32 C 32.94 28.32 32.03 29.23 32.03 30.34 C 32.03 31.46 32.94 32.36 34.06 32.36 Z M 34.06 32.36" />
    <path stroke-linejoin="miter" stroke-linecap="butt" stroke-width="2.365591397849462" stroke="#e6e6e6" fill="none" fill-rule="evenodd" d="M 1.61 26.13 C 1.61 30.72 5.88 34.11 10.51 34.11 C 10.51 29.52 6.23 26.13 1.61 26.13 L 1.61 26.13 Z M 1.61 26.13" />
    <path stroke-linejoin="miter" stroke-linecap="butt" stroke-width="2.365591397849462" stroke="#e6e6e6" fill="none" fill-rule="evenodd" d="M 22.22 27.96 C 15.48 27.96 10.51 32.54 10.51 37.49 C 17.25 37.49 22.22 32.91 22.22 27.96 L 22.22 27.96 Z M 22.22 27.96" />
    <path stroke-linejoin="miter" stroke-linecap="butt" stroke-width="2.365591397849462" stroke="#e6e6e6" fill="none" fill-rule="evenodd" d="M 19.22 17.61 C 14.21 17.61 10.51 21.01 10.51 24.69 C 15.52 24.69 19.22 21.29 19.22 17.61 L 19.22 17.61 Z M 19.22 17.61" />
    <path stroke-linejoin="miter" stroke-linecap="butt" stroke-width="2.365591397849462" stroke="#e6e6e6" fill="none" fill-rule="evenodd" d="M 10.51 16.28 L 10.51 44.43" />
</svg>