<?xml version="1.0" encoding="utf-8"?>
<!-- Generator: Avocode 2.6.0 - http://avocode.com -->
<svg height="56" width="61" xmlns:xlink="http://www.w3.org/1999/xlink" xmlns="http://www.w3.org/2000/svg" viewBox="0 0 61 56">
    <path stroke-linejoin="miter" stroke-linecap="butt" stroke-width="2.474226804123711" stroke="#f4f4f4" fill="none" fill-rule="evenodd" d="M 2.04 51.15 L 2.04 55.95" />
    <path stroke-linejoin="miter" stroke-linecap="butt" stroke-width="2.474226804123711" stroke="#f4f4f4" fill="none" fill-rule="evenodd" d="M 58.94 51.15 L 58.94 55.95" />
    <path stroke-linejoin="miter" stroke-linecap="butt" stroke-width="2.474226804123711" stroke="#f4f4f4" fill="none" fill-rule="evenodd" d="M 30.49 41.36 L 58.94 41.36 L 58.94 51.18 L 30.49 51.18 L 30.49 41.36 Z M 30.49 41.36" />
    <path stroke-linejoin="miter" stroke-linecap="butt" stroke-width="2.474226804123711" stroke="#f4f4f4" fill="none" fill-rule="evenodd" d="M 2.04 41.36 L 30.49 41.36 L 30.49 51.18 L 2.04 51.18 L 2.04 41.36 Z M 2.04 41.36" />
    <path stroke-linejoin="miter" stroke-linecap="butt" stroke-width="2.474226804123711" stroke="#f4f4f4" fill="none" fill-rule="evenodd" d="M 2.04 34 L 58.94 34 L 58.94 41.36 L 2.04 41.36 L 2.04 34 Z M 2.04 34" />
    <path stroke-linejoin="miter" stroke-linecap="butt" stroke-width="2.474226804123711" stroke="#f4f4f4" fill="none" fill-rule="evenodd" d="M 9.46 2.09 L 51.52 2.09 L 51.52 26.63 L 9.46 26.63 L 9.46 2.09 Z M 9.46 2.09" />
    <path stroke-linejoin="miter" stroke-linecap="butt" stroke-width="2.474226804123711" stroke="#f4f4f4" fill="none" fill-rule="evenodd" d="M 18.12 46.27 L 13.17 46.27" />
    <path stroke-linejoin="miter" stroke-linecap="butt" stroke-width="2.474226804123711" stroke="#f4f4f4" fill="none" fill-rule="evenodd" d="M 47.81 46.27 L 42.86 46.27" />
    <path stroke-linejoin="miter" stroke-linecap="butt" stroke-width="2.474226804123711" stroke="#f4f4f4" fill="none" fill-rule="evenodd" d="M 17.53 7.03 L 14.66 9.88" />
    <path stroke-linejoin="miter" stroke-linecap="butt" stroke-width="2.474226804123711" stroke="#f4f4f4" fill="none" fill-rule="evenodd" d="M 22.43 8.33 L 15.96 14.74" />
</svg>