<?xml version="1.0" encoding="utf-8"?>
<!-- Generator: Avocode 2.6.0 - http://avocode.com -->
<svg height="47" width="48" xmlns:xlink="http://www.w3.org/1999/xlink" xmlns="http://www.w3.org/2000/svg" viewBox="0 0 48 47">
    <path fill="#939ea7" fill-rule="evenodd" d="M 47.57 44.81 C 42.14 36.53 32.27 31 21 31 C 12.9 31 5.52 33.86 0 38.54 L 0 42.99 C 0 45.21 1.79 47 4.01 47 L 43.99 47 C 45.55 47 46.91 46.11 47.57 44.81 Z M 20.5 29 C 27.96 29 34 22.51 34 14.5 C 34 6.49 27.96 0 20.5 0 C 13.04 0 7 6.49 7 14.5 C 7 22.51 13.04 29 20.5 29 Z M 20.5 29" />
</svg>