<?xml version="1.0" encoding="utf-8"?>
<!-- Generator: Avocode 2.6.0 - http://avocode.com -->
<svg height="23" width="17" xmlns:xlink="http://www.w3.org/1999/xlink" xmlns="http://www.w3.org/2000/svg" viewBox="0 0 17 23">
    <path stroke-linejoin="miter" stroke-linecap="butt" stroke-width="0.96" stroke="#000000" fill="none" fill-rule="evenodd" d="M 8.47 22.3 C 12.64 22.3 16.03 18.92 16.03 14.75 C 16.03 10.58 12.64 7.2 8.47 7.2 C 4.29 7.2 0.9 10.58 0.9 14.75 C 0.9 18.92 4.29 22.3 8.47 22.3 Z M 8.47 22.3" />
    <path stroke-linejoin="miter" stroke-linecap="butt" stroke-width="0.96" stroke="#000000" fill="none" fill-rule="evenodd" d="M 8.46 16.28 C 9.27 16.28 9.94 15.62 9.94 14.8 C 9.94 13.99 9.27 13.33 8.46 13.33 C 7.64 13.33 6.98 13.99 6.98 14.8 C 6.98 15.62 7.64 16.28 8.46 16.28 Z M 8.46 16.28" />
    <path stroke-linejoin="miter" stroke-linecap="butt" stroke-width="0.96" stroke="#000000" fill="none" fill-rule="evenodd" d="M 9.5 13.76 L 10.57 12.71" />
    <path stroke-linejoin="miter" stroke-linecap="butt" stroke-width="0.96" stroke="#000000" fill="none" fill-rule="evenodd" d="M 4.44 8.36 L 4.44 4.85 C 4.44 2.63 6.24 0.83 8.47 0.83 C 10.69 0.83 12.49 2.63 12.49 4.85 L 12.49 8.36" />
    <path stroke-linejoin="miter" stroke-linecap="butt" stroke-width="0.96" stroke="#000000" fill="none" fill-rule="evenodd" d="M 13.09 14.8 L 13.97 14.8" />
    <path stroke-linejoin="miter" stroke-linecap="butt" stroke-width="0.96" stroke="#000000" fill="none" fill-rule="evenodd" d="M 2.95 14.8 L 3.83 14.8" />
    <path stroke-linejoin="miter" stroke-linecap="butt" stroke-width="0.96" stroke="#000000" fill="none" fill-rule="evenodd" d="M 8.46 19.42 L 8.46 20.3" />
    <path stroke-linejoin="miter" stroke-linecap="butt" stroke-width="0.96" stroke="#000000" fill="none" fill-rule="evenodd" d="M 8.46 9.3 L 8.46 10.18" />
    <path stroke-linejoin="miter" stroke-linecap="butt" stroke-width="0.96" stroke="#000000" fill="none" fill-rule="evenodd" d="M 11.83 11.44 L 12.45 10.82" />
    <path stroke-linejoin="miter" stroke-linecap="butt" stroke-width="0.96" stroke="#000000" fill="none" fill-rule="evenodd" d="M 4.47 18.78 L 5.1 18.16" />
    <path stroke-linejoin="miter" stroke-linecap="butt" stroke-width="0.96" stroke="#000000" fill="none" fill-rule="evenodd" d="M 11.83 18.16 L 12.45 18.78" />
    <path stroke-linejoin="miter" stroke-linecap="butt" stroke-width="0.96" stroke="#000000" fill="none" fill-rule="evenodd" d="M 4.47 10.82 L 5.1 11.44" />
</svg>