<?xml version="1.0" encoding="utf-8"?>
<!-- Generator: Avocode 2.6.0 - http://avocode.com -->
<svg height="79" width="79" xmlns:xlink="http://www.w3.org/1999/xlink" xmlns="http://www.w3.org/2000/svg" viewBox="0 0 79 79">
    <path stroke-linejoin="miter" stroke-linecap="butt" stroke-width="3.282051282051282" stroke="#000000" fill="none" fill-rule="evenodd" d="M 25.19 61.06 C 26.66 60.52 29.02 54.98 29.02 54.98 C 28.79 54.86 9.25 61.86 2.15 68.76 C 1.84 69.06 1.67 69.47 1.67 69.9 L 1.67 75.56 C 1.67 76.44 2.38 77.14 3.25 77.14 L 39.38 77.14 C 36.63 63 25.19 61.06 25.19 61.06 L 25.19 61.06 Z M 25.19 61.06" />
    <path stroke-linejoin="miter" stroke-linecap="butt" stroke-width="3.282051282051282" stroke="#000000" fill="none" fill-rule="evenodd" d="M 76.61 68.76 C 69.66 62.02 49.97 54.86 49.74 54.98 L 49.74 54.98 C 49.74 54.98 52.1 60.52 53.56 61.06 C 53.56 61.06 42.13 63 39.38 77.14 L 75.5 77.14 C 76.38 77.14 77.09 76.44 77.09 75.56 L 77.09 69.9 C 77.09 69.47 76.91 69.06 76.61 68.76 L 76.61 68.76 Z M 76.61 68.76" />
    <path stroke-linejoin="miter" stroke-linecap="butt" stroke-width="3.282051282051282" stroke="#000000" fill="none" fill-rule="evenodd" d="M 48.04 49.22 C 48.2 48.89 48.14 46.94 48.14 46.54 C 51.17 43.56 53.21 39.25 53.53 34.93 L 53.58 34.93 C 56.57 34.93 57.42 30.59 54.71 29.31 C 55.27 27.57 55.58 25.71 55.58 23.77 C 55.58 22 55.32 20.29 54.86 18.69 C 55.47 19.94 55.87 21.09 56.23 21.87 C 56.46 22.35 57.3 21.87 57.3 21.87 C 58.94 14.74 52.97 10.31 52.97 10.31 C 57.44 10.58 59.02 12.62 59.02 12.62 C 55.21 6.04 50.16 7.79 50.13 7.8 C 43.23 -2.07 27.91 3.39 27.91 3.39 C 32.1 2.6 35.76 5.02 38.66 5.33 C 24.54 4.64 20.82 18.15 20.82 18.15 C 21.36 16.43 23.37 15.2 25.91 14.32 C 24.22 17.03 23.23 20.28 23.23 23.77 C 23.23 25.71 23.54 27.57 24.1 29.31 C 21.38 30.59 22.25 34.93 25.23 34.93 L 25.28 34.93 C 25.6 39.25 27.63 43.56 30.66 46.54 C 30.66 46.95 30.6 48.9 30.77 49.23" />
</svg>