<?xml version="1.0" encoding="utf-8"?>
<!-- Generator: Avocode 2.6.0 - http://avocode.com -->
<svg height="99" width="70" xmlns:xlink="http://www.w3.org/1999/xlink" xmlns="http://www.w3.org/2000/svg" viewBox="0 0 70 99">
    <path stroke-linejoin="miter" stroke-linecap="butt" stroke-width="4.173913043478261" stroke="#e6e6e6" fill="none" fill-rule="evenodd" d="M 35.02 95.97 C 53.12 95.97 67.8 81.27 67.8 63.14 C 67.8 45 53.12 30.31 35.02 30.31 C 16.92 30.31 2.24 45 2.24 63.14 C 2.24 81.27 16.92 95.97 35.02 95.97 Z M 35.02 95.97" />
    <path stroke-linejoin="miter" stroke-linecap="butt" stroke-width="4.173913043478261" stroke="#e6e6e6" fill="none" fill-rule="evenodd" d="M 34.98 69.77 C 38.52 69.77 41.39 66.9 41.39 63.36 C 41.39 59.81 38.52 56.94 34.98 56.94 C 31.44 56.94 28.57 59.81 28.57 63.36 C 28.57 66.9 31.44 69.77 34.98 69.77 Z M 34.98 69.77" />
    <path stroke-linejoin="miter" stroke-linecap="butt" stroke-width="4.173913043478261" stroke="#e6e6e6" fill="none" fill-rule="evenodd" d="M 39.51 58.82 L 44.14 54.25" />
    <path stroke-linejoin="miter" stroke-linecap="butt" stroke-width="4.173913043478261" stroke="#e6e6e6" fill="none" fill-rule="evenodd" d="M 17.59 35.33 L 17.59 20.08 C 17.59 10.44 25.39 2.62 35.02 2.62 C 44.64 2.62 52.45 10.44 52.45 20.08 L 52.45 35.33" />
    <path stroke-linejoin="miter" stroke-linecap="butt" stroke-width="4.173913043478261" stroke="#e6e6e6" fill="none" fill-rule="evenodd" d="M 55.05 63.36 L 58.86 63.36" />
    <path stroke-linejoin="miter" stroke-linecap="butt" stroke-width="4.173913043478261" stroke="#e6e6e6" fill="none" fill-rule="evenodd" d="M 11.14 63.36 L 14.95 63.36" />
    <path stroke-linejoin="miter" stroke-linecap="butt" stroke-width="4.173913043478261" stroke="#e6e6e6" fill="none" fill-rule="evenodd" d="M 35 83.44 L 35 87.26" />
    <path stroke-linejoin="miter" stroke-linecap="butt" stroke-width="4.173913043478261" stroke="#e6e6e6" fill="none" fill-rule="evenodd" d="M 35 39.46 L 35 43.27" />
    <path stroke-linejoin="miter" stroke-linecap="butt" stroke-width="4.173913043478261" stroke="#e6e6e6" fill="none" fill-rule="evenodd" d="M 49.59 48.75 L 52.28 46.05" />
    <path stroke-linejoin="miter" stroke-linecap="butt" stroke-width="4.173913043478261" stroke="#e6e6e6" fill="none" fill-rule="evenodd" d="M 17.72 80.66 L 20.42 77.96" />
    <path stroke-linejoin="miter" stroke-linecap="butt" stroke-width="4.173913043478261" stroke="#e6e6e6" fill="none" fill-rule="evenodd" d="M 49.59 77.96 L 52.28 80.66" />
    <path stroke-linejoin="miter" stroke-linecap="butt" stroke-width="4.173913043478261" stroke="#e6e6e6" fill="none" fill-rule="evenodd" d="M 17.72 46.05 L 20.42 48.75" />
</svg>