<?xml version="1.0" encoding="utf-8"?>
<!-- Generator: Avocode 2.6.0 - http://avocode.com -->
<svg height="20" width="30" xmlns:xlink="http://www.w3.org/1999/xlink" xmlns="http://www.w3.org/2000/svg" viewBox="0 0 30 20">
    <path stroke-linejoin="miter" stroke-linecap="butt" stroke-width="1.25" stroke="#ffffff" fill="none" fill-rule="evenodd" d="M 25.63 4.69 C 25.63 4.49 25.4 4.38 25.18 4.38 L 21.04 4.38 C 20.82 4.38 20.63 4.49 20.63 4.69 L 20.63 10.26 C 20.63 10.45 20.82 10.63 21.04 10.63 L 25.18 10.63 C 25.4 10.63 25.62 10.45 25.62 10.26 L 25.62 4.69 L 25.63 4.69 Z M 25.63 4.69" />
    <path stroke-linejoin="miter" stroke-linecap="butt" stroke-width="1.25" stroke="#ffffff" fill="none" fill-rule="evenodd" d="M 4.47 15.63 L 13.1 15.63" />
    <path stroke-linejoin="miter" stroke-linecap="butt" stroke-width="1.25" stroke="#ffffff" fill="none" fill-rule="evenodd" d="M 4.47 11.88 L 13.1 11.88" />
    <path stroke-linejoin="miter" stroke-linecap="butt" stroke-width="1.25" stroke="#ffffff" fill="none" fill-rule="evenodd" d="M 4.47 8.13 L 8.16 8.13" />
    <path stroke-linejoin="miter" stroke-linecap="butt" stroke-width="1.25" stroke="#ffffff" fill="none" fill-rule="evenodd" d="M 0.63 0.63 L 29.38 0.63 L 29.38 19.38 L 0.63 19.38 L 0.63 0.63 Z M 0.63 0.63" />
</svg>