<?xml version="1.0" encoding="utf-8"?>
<!-- Generator: Avocode 2.6.0 - http://avocode.com -->
<svg height="50" width="50" xmlns:xlink="http://www.w3.org/1999/xlink" xmlns="http://www.w3.org/2000/svg" viewBox="0 0 50 50">
    <path fill="#e6e6e6" fill-rule="evenodd" d="M 25.35 0.16 C 11.75 0.16 0.72 11.18 0.72 24.78 C 0.72 38.38 11.75 49.41 25.35 49.41 C 38.95 49.41 49.97 38.38 49.97 24.78 C 49.97 11.18 38.94 0.16 25.35 0.16 L 25.35 0.16 Z M 39.06 36.74 C 39.06 37.84 38.15 38.72 37.03 38.72 L 13.61 38.72 C 12.49 38.72 11.58 37.84 11.58 36.74 L 11.58 13.05 C 11.58 11.96 12.49 11.07 13.61 11.07 L 37.03 11.07 C 38.15 11.07 39.06 11.96 39.06 13.05 L 39.06 36.74 L 39.06 36.74 Z M 39.06 36.74" />
    <path fill="#e6e6e6" fill-rule="evenodd" d="M 30.1 21.44 C 27.9 21.44 26.91 22.65 26.36 23.5 L 26.36 23.54 L 26.33 23.54 C 26.34 23.53 26.35 23.52 26.36 23.5 L 26.36 21.73 L 22.21 21.73 C 22.26 22.9 22.21 34.22 22.21 34.22 L 26.36 34.22 L 26.36 27.24 C 26.36 26.87 26.39 26.5 26.5 26.23 C 26.8 25.49 27.48 24.71 28.62 24.71 C 30.13 24.71 30.73 25.86 30.73 27.54 L 30.73 34.22 L 34.88 34.22 L 34.88 27.06 C 34.88 23.22 32.83 21.44 30.1 21.44 L 30.1 21.44 Z M 30.1 21.44" />
    <path fill="#e6e6e6" fill-rule="evenodd" d="M 17.86 15.71 C 16.44 15.71 15.51 16.65 15.51 17.87 C 15.51 19.07 16.41 20.03 17.81 20.03 L 17.84 20.03 C 19.28 20.03 20.18 19.07 20.18 17.87 C 20.16 16.65 19.28 15.71 17.86 15.71 L 17.86 15.71 Z M 17.86 15.71" />
    <path fill="#e6e6e6" fill-rule="evenodd" d="M 15.76 21.73 L 19.91 21.73 L 19.91 34.22 L 15.76 34.22 L 15.76 21.73 Z M 15.76 21.73" />
</svg>