<?xml version="1.0" encoding="utf-8"?>
<!-- Generator: Avocode 2.6.0 - http://avocode.com -->
<svg height="28" width="31" xmlns:xlink="http://www.w3.org/1999/xlink" xmlns="http://www.w3.org/2000/svg" viewBox="0 0 31 28">
    <path stroke-linejoin="miter" stroke-linecap="butt" stroke-width="1.237113402061856" stroke="#f4f4f4" fill="none" fill-rule="evenodd" d="M 1.02 25.58 L 1.02 27.98" />
    <path stroke-linejoin="miter" stroke-linecap="butt" stroke-width="1.237113402061856" stroke="#f4f4f4" fill="none" fill-rule="evenodd" d="M 29.47 25.58 L 29.47 27.98" />
    <path stroke-linejoin="miter" stroke-linecap="butt" stroke-width="1.237113402061856" stroke="#f4f4f4" fill="none" fill-rule="evenodd" d="M 15.24 20.68 L 29.47 20.68 L 29.47 25.59 L 15.24 25.59 L 15.24 20.68 Z M 15.24 20.68" />
    <path stroke-linejoin="miter" stroke-linecap="butt" stroke-width="1.237113402061856" stroke="#f4f4f4" fill="none" fill-rule="evenodd" d="M 1.02 20.68 L 15.24 20.68 L 15.24 25.59 L 1.02 25.59 L 1.02 20.68 Z M 1.02 20.68" />
    <path stroke-linejoin="miter" stroke-linecap="butt" stroke-width="1.237113402061856" stroke="#f4f4f4" fill="none" fill-rule="evenodd" d="M 1.02 17 L 29.47 17 L 29.47 20.68 L 1.02 20.68 L 1.02 17 Z M 1.02 17" />
    <path stroke-linejoin="miter" stroke-linecap="butt" stroke-width="1.237113402061856" stroke="#f4f4f4" fill="none" fill-rule="evenodd" d="M 4.73 1.04 L 25.76 1.04 L 25.76 13.32 L 4.73 13.32 L 4.73 1.04 Z M 4.73 1.04" />
    <path stroke-linejoin="miter" stroke-linecap="butt" stroke-width="1.237113402061856" stroke="#f4f4f4" fill="none" fill-rule="evenodd" d="M 9.06 23.13 L 6.58 23.13" />
    <path stroke-linejoin="miter" stroke-linecap="butt" stroke-width="1.237113402061856" stroke="#f4f4f4" fill="none" fill-rule="evenodd" d="M 23.9 23.13 L 21.43 23.13" />
    <path stroke-linejoin="miter" stroke-linecap="butt" stroke-width="1.237113402061856" stroke="#f4f4f4" fill="none" fill-rule="evenodd" d="M 8.76 3.51 L 7.33 4.94" />
    <path stroke-linejoin="miter" stroke-linecap="butt" stroke-width="1.237113402061856" stroke="#f4f4f4" fill="none" fill-rule="evenodd" d="M 11.21 4.16 L 7.98 7.37" />
</svg>