<?xml version="1.0" encoding="utf-8"?>
<!-- Generator: Avocode 2.6.0 - http://avocode.com -->
<svg height="24" width="24" xmlns:xlink="http://www.w3.org/1999/xlink" xmlns="http://www.w3.org/2000/svg" viewBox="0 0 24 24">
    <path fill="#e6e6e6" fill-rule="evenodd" d="M 11.98 0.01 C 5.58 0.01 0.39 5.3 0.39 11.83 C 0.39 18.36 5.58 23.65 11.98 23.65 C 18.38 23.65 23.57 18.36 23.57 11.83 C 23.57 5.3 18.38 0.01 11.98 0.01 L 11.98 0.01 Z M 18.64 14.34 C 18.31 15.49 17.69 16.57 16.82 17.38 C 16 18.16 14.97 18.69 13.88 18.94 C 12.68 19.22 11.41 19.23 10.21 18.9 C 9.26 18.64 8.37 18.18 7.6 17.56 C 6.79 16.9 6.12 16.06 5.65 15.11 C 4.93 13.67 4.71 11.97 5.03 10.38 C 5.16 9.74 5.37 9.12 5.65 8.54 C 6.48 6.85 7.97 5.52 9.72 4.91 C 11.27 4.36 13.01 4.37 14.56 4.95 C 15.41 5.27 16.2 5.78 16.87 6.41 C 16.64 6.66 16.4 6.89 16.17 7.13 C 15.73 7.58 15.29 8.03 14.85 8.48 C 14.41 8.05 13.88 7.73 13.3 7.55 C 12.62 7.34 11.89 7.31 11.19 7.46 C 10.38 7.64 9.63 8.07 9.05 8.68 C 8.58 9.16 8.22 9.76 8.01 10.4 C 7.7 11.32 7.7 12.34 8.01 13.25 C 8.3 14.15 8.89 14.95 9.65 15.5 C 10.13 15.84 10.67 16.09 11.25 16.2 C 11.81 16.32 12.4 16.31 12.96 16.21 C 13.52 16.11 14.07 15.9 14.54 15.57 C 15.3 15.06 15.83 14.23 15.98 13.31 C 14.68 13.31 13.37 13.31 12.07 13.31 C 12.07 12.36 12.07 11.41 12.07 10.45 C 14.32 10.45 16.57 10.45 18.82 10.46 C 19.05 11.74 19 13.08 18.64 14.34 L 18.64 14.34 Z M 18.64 14.34" />
</svg>