<?xml version="1.0" encoding="utf-8"?>
<!-- Generator: Avocode 2.6.0 - http://avocode.com -->
<svg height="24" width="24" xmlns:xlink="http://www.w3.org/1999/xlink" xmlns="http://www.w3.org/2000/svg" viewBox="0 0 24 24">
    <path fill="#e6e6e6" fill-rule="evenodd" d="M 12.17 0.08 C 5.64 0.08 0.35 5.37 0.35 11.9 C 0.35 18.42 5.64 23.71 12.17 23.71 C 18.69 23.71 23.99 18.42 23.99 11.9 C 23.99 5.37 18.69 0.08 12.17 0.08 L 12.17 0.08 Z M 15.29 11.85 L 13.25 11.85 L 13.25 19.15 L 10.21 19.15 L 10.21 11.85 L 8.77 11.85 L 8.77 9.27 L 10.21 9.27 L 10.21 7.6 C 10.21 6.4 10.78 4.54 13.28 4.54 L 15.52 4.55 L 15.52 7.05 L 13.89 7.05 C 13.63 7.05 13.25 7.18 13.25 7.75 L 13.25 9.27 L 15.56 9.27 L 15.29 11.85 L 15.29 11.85 Z M 15.29 11.85" />
</svg>