<?xml version="1.0" encoding="utf-8"?>
<!-- Generator: Avocode 2.6.0 - http://avocode.com -->
<svg height="17" width="20" xmlns:xlink="http://www.w3.org/1999/xlink" xmlns="http://www.w3.org/2000/svg" viewBox="0 0 20 17">
    <path stroke-linejoin="miter" stroke-linecap="butt" stroke-width="0.8333333333333334" stroke="#f4f4f4" fill="none" fill-rule="evenodd" d="M 10.75 10.08 L 0.42 10.08 L 0.42 0.92 L 19.17 0.92" />
    <path stroke-linejoin="miter" stroke-linecap="butt" stroke-width="0.8333333333333334" stroke="#f4f4f4" fill="none" fill-rule="evenodd" d="M 19.17 10.08 L 12.58 10.08" />
    <path stroke-linejoin="miter" stroke-linecap="butt" stroke-width="0.8333333333333334" stroke="#f4f4f4" fill="none" fill-rule="evenodd" d="M 17.92 3.22 L 17.92 7.78" />
    <path stroke-linejoin="miter" stroke-linecap="butt" stroke-width="0.8333333333333334" stroke="#f4f4f4" fill="none" fill-rule="evenodd" d="M 15.26 14.62 L 14.05 13.03 L 15.13 12.81 C 15.3 12.78 15.36 12.57 15.23 12.46 L 10.85 8.52 C 10.7 8.39 10.47 8.52 10.51 8.71 L 11.51 14.45 C 11.54 14.61 11.74 14.67 11.85 14.56 L 12.72 13.69 L 13.81 15.59 C 13.87 15.7 14 15.73 14.1 15.66 L 15.21 14.91 C 15.31 14.85 15.33 14.71 15.26 14.62 L 15.26 14.62 Z M 15.26 14.62" />
    <path stroke-linejoin="miter" stroke-linecap="butt" stroke-width="0.8333333333333334" stroke="#f4f4f4" fill="none" fill-rule="evenodd" d="M 2.34 4.47 L 3.2 6.78 L 4.05 4.47 L 4.91 6.78 L 5.76 4.47" />
    <path stroke-linejoin="miter" stroke-linecap="butt" stroke-width="0.8333333333333334" stroke="#f4f4f4" fill="none" fill-rule="evenodd" d="M 6.83 4.47 L 7.7 6.78 L 8.55 4.47 L 9.41 6.78 L 10.26 4.47" />
    <path stroke-linejoin="miter" stroke-linecap="butt" stroke-width="0.8333333333333334" stroke="#f4f4f4" fill="none" fill-rule="evenodd" d="M 11.26 4.47 L 12.12 6.78 L 12.97 4.47 L 13.83 6.78 L 14.68 4.47" />
</svg>