<?xml version="1.0" encoding="utf-8"?>
<!-- Generator: Avocode 2.6.0 - http://avocode.com -->
<svg height="24" width="24" xmlns:xlink="http://www.w3.org/1999/xlink" xmlns="http://www.w3.org/2000/svg" viewBox="0 0 24 24">
    <path fill="#e6e6e6" fill-rule="evenodd" d="M 12.17 0.07 C 5.64 0.07 0.35 5.37 0.35 11.89 C 0.35 18.42 5.64 23.71 12.17 23.71 C 18.69 23.71 23.99 18.42 23.99 11.89 C 23.99 5.37 18.69 0.07 12.17 0.07 L 12.17 0.07 Z M 18.75 17.64 C 18.75 18.16 18.31 18.59 17.77 18.59 L 6.53 18.59 C 6 18.59 5.56 18.16 5.56 17.64 L 5.56 6.26 C 5.56 5.74 6 5.31 6.53 5.31 L 17.77 5.31 C 18.31 5.31 18.75 5.74 18.75 6.26 L 18.75 17.64 L 18.75 17.64 Z M 18.75 17.64" />
    <path fill="#e6e6e6" fill-rule="evenodd" d="M 14.45 10.29 C 13.39 10.29 12.92 10.87 12.65 11.28 L 12.65 11.3 L 12.64 11.3 C 12.64 11.29 12.65 11.29 12.65 11.28 L 12.65 10.43 L 10.66 10.43 C 10.69 10.99 10.66 16.42 10.66 16.42 L 12.65 16.42 L 12.65 13.08 C 12.65 12.9 12.67 12.72 12.72 12.59 C 12.86 12.23 13.19 11.86 13.74 11.86 C 14.46 11.86 14.75 12.41 14.75 13.22 L 14.75 16.42 L 16.74 16.42 L 16.74 12.99 C 16.74 11.15 15.76 10.29 14.45 10.29 L 14.45 10.29 Z M 14.45 10.29" />
    <path fill="#e6e6e6" fill-rule="evenodd" d="M 8.57 7.54 C 7.89 7.54 7.45 7.99 7.45 8.58 C 7.45 9.15 7.88 9.61 8.55 9.61 L 8.56 9.61 C 9.26 9.61 9.69 9.15 9.69 8.58 C 9.68 7.99 9.26 7.54 8.57 7.54 L 8.57 7.54 Z M 8.57 7.54" />
    <path fill="#e6e6e6" fill-rule="evenodd" d="M 7.57 10.43 L 9.56 10.43 L 9.56 16.42 L 7.57 16.42 L 7.57 10.43 Z M 7.57 10.43" />
</svg>