<?xml version="1.0" encoding="utf-8"?>
<!-- Generator: Avocode 2.6.0 - http://avocode.com -->
<svg height="24" width="24" xmlns:xlink="http://www.w3.org/1999/xlink" xmlns="http://www.w3.org/2000/svg" viewBox="0 0 24 24">
    <path fill="#e6e6e6" fill-rule="evenodd" d="M 12.17 0.08 C 5.64 0.08 0.35 5.37 0.35 11.9 C 0.35 18.42 5.64 23.71 12.17 23.71 C 18.7 23.71 23.99 18.42 23.99 11.9 C 23.99 5.37 18.69 0.08 12.17 0.08 L 12.17 0.08 Z M 18.12 9.51 C 18.13 9.64 18.13 9.77 18.13 9.9 C 18.13 13.83 15.13 18.37 9.65 18.37 C 7.97 18.37 6.41 17.88 5.09 17.03 C 5.32 17.06 5.56 17.08 5.8 17.08 C 7.19 17.08 8.48 16.6 9.5 15.8 C 8.2 15.78 7.1 14.92 6.72 13.73 C 6.9 13.77 7.08 13.79 7.28 13.79 C 7.55 13.79 7.81 13.75 8.06 13.68 C 6.7 13.41 5.67 12.2 5.67 10.76 C 5.67 10.75 5.67 10.74 5.67 10.72 C 6.07 10.95 6.53 11.08 7.02 11.1 C 6.22 10.56 5.7 9.65 5.7 8.62 C 5.7 8.07 5.84 7.56 6.1 7.12 C 7.57 8.92 9.76 10.11 12.24 10.23 C 12.19 10.01 12.16 9.78 12.16 9.55 C 12.16 7.91 13.5 6.57 15.14 6.57 C 16 6.57 16.77 6.93 17.31 7.51 C 17.99 7.38 18.63 7.13 19.21 6.79 C 18.98 7.49 18.51 8.07 17.9 8.44 C 18.5 8.37 19.07 8.21 19.61 7.97 C 19.21 8.57 18.7 9.09 18.12 9.51 L 18.12 9.51 Z M 18.12 9.51" />
</svg>