<?xml version="1.0" encoding="utf-8"?>
<!-- Generator: Avocode 2.6.0 - http://avocode.com -->
<svg height="25" width="29" xmlns:xlink="http://www.w3.org/1999/xlink" xmlns="http://www.w3.org/2000/svg" viewBox="0 0 29 25">
    <path stroke-linejoin="miter" stroke-linecap="butt" stroke-width="1.25" stroke="#ffffff" fill="none" fill-rule="evenodd" d="M 16.12 15.13 L 0.63 15.13 L 0.63 1.38 L 28.75 1.38" />
    <path stroke-linejoin="miter" stroke-linecap="butt" stroke-width="1.25" stroke="#ffffff" fill="none" fill-rule="evenodd" d="M 28.75 15.13 L 18.88 15.13" />
    <path stroke-linejoin="miter" stroke-linecap="butt" stroke-width="1.25" stroke="#ffffff" fill="none" fill-rule="evenodd" d="M 26.88 4.83 L 26.88 11.67" />
    <path stroke-linejoin="miter" stroke-linecap="butt" stroke-width="1.25" stroke="#ffffff" fill="none" fill-rule="evenodd" d="M 22.89 21.93 L 21.08 19.54 L 22.7 19.22 C 22.95 19.17 23.03 18.86 22.85 18.69 L 16.27 12.78 C 16.05 12.59 15.71 12.78 15.76 13.06 L 17.26 21.67 C 17.31 21.92 17.61 22.01 17.78 21.84 L 19.08 20.53 L 20.71 23.39 C 20.8 23.55 21 23.59 21.15 23.49 L 22.81 22.37 C 22.96 22.27 22.99 22.07 22.89 21.93 L 22.89 21.93 Z M 22.89 21.93" />
    <path stroke-linejoin="miter" stroke-linecap="butt" stroke-width="1.25" stroke="#ffffff" fill="none" fill-rule="evenodd" d="M 3.51 6.71 L 4.8 10.17 L 6.08 6.71 L 7.37 10.17 L 8.64 6.71" />
    <path stroke-linejoin="miter" stroke-linecap="butt" stroke-width="1.25" stroke="#ffffff" fill="none" fill-rule="evenodd" d="M 10.25 6.71 L 11.55 10.17 L 12.82 6.71 L 14.11 10.17 L 15.38 6.71" />
    <path stroke-linejoin="miter" stroke-linecap="butt" stroke-width="1.25" stroke="#ffffff" fill="none" fill-rule="evenodd" d="M 16.89 6.71 L 18.18 10.17 L 19.45 6.71 L 20.75 10.17 L 22.02 6.71" />
</svg>