<?xml version="1.0" encoding="utf-8"?>
<!-- Generator: Avocode 2.6.0 - http://avocode.com -->
<svg height="47" width="44" xmlns:xlink="http://www.w3.org/1999/xlink" xmlns="http://www.w3.org/2000/svg" viewBox="0 0 44 47">
    <path stroke-linejoin="miter" stroke-linecap="butt" stroke-width="2.434782608695652" stroke="#e6e6e6" fill="none" fill-rule="evenodd" d="M 10.87 21.85 C 9.05 24.16 5.63 29.17 5.53 34.49 L 11.95 31.57" />
    <path stroke-linejoin="miter" stroke-linecap="butt" stroke-width="2.434782608695652" stroke="#e6e6e6" fill="none" fill-rule="evenodd" d="M 32.92 21.68 C 34.71 23.91 38.29 29.04 38.39 34.49 L 31.98 31.57" />
    <path stroke-linejoin="miter" stroke-linecap="butt" stroke-width="2.434782608695652" stroke="#e6e6e6" fill="none" fill-rule="evenodd" d="M 21.94 -3.69 C 17.29 -3.69 13.9 4.35 13.9 8.59 L 16.42 31.86 C 16.45 32.29 16.81 32.63 17.24 32.63 L 26.64 32.63 C 27.07 32.63 27.43 32.29 27.46 31.86 L 29.98 8.53 C 29.98 4.35 26.58 -3.69 21.94 -3.69 L 21.94 -3.69 Z M 21.94 -3.69" />
    <path stroke-linejoin="miter" stroke-linecap="butt" stroke-width="2.434782608695652" stroke="#e6e6e6" fill="none" fill-rule="evenodd" d="M 21.94 14.68 C 23.7 14.68 25.14 13.24 25.14 11.47 C 25.14 9.7 23.7 8.27 21.94 8.27 C 20.17 8.27 18.74 9.7 18.74 11.47 C 18.74 13.24 20.17 14.68 21.94 14.68 Z M 21.94 14.68" />
    <path stroke-linejoin="miter" stroke-linecap="butt" stroke-width="2.434782608695652" stroke="#e6e6e6" fill="none" fill-rule="evenodd" d="M 24.29 36.96 C 23.63 38.97 22.82 40.53 21.94 40.53 C 21.05 40.53 20.24 38.97 19.58 36.96 C 18.6 37.42 17.97 38.29 17.97 39.73 C 17.97 42.14 19.74 51.74 21.93 51.74 C 24.13 51.74 25.91 42.14 25.91 39.73 C 25.91 38.29 25.27 37.42 24.29 36.96 L 24.29 36.96 Z M 24.29 36.96" />
</svg>