<?xml version="1.0" encoding="utf-8"?>
<!-- Generator: Avocode 2.6.0 - http://avocode.com -->
<svg height="55" width="42" xmlns:xlink="http://www.w3.org/1999/xlink" xmlns="http://www.w3.org/2000/svg" viewBox="0 0 42 55">
    <path stroke-linejoin="miter" stroke-linecap="butt" stroke-width="2.365591397849462" stroke="#e6e6e6" fill="none" fill-rule="evenodd" d="M 40.58 24.74 C 40.58 20.01 36.61 15.77 31.7 15.77 C 26.79 15.77 22.81 20.01 22.81 24.74 L 40.58 24.74 L 40.58 24.74 Z M 40.58 24.74" />
    <path stroke-linejoin="miter" stroke-linecap="butt" stroke-width="2.365591397849462" stroke="#e6e6e6" fill="none" fill-rule="evenodd" d="M 31.7 15.77 C 31.7 8.62 26.82 1.13 18.7 1.35 C 11.62 1.54 5.89 6.9 5.89 14.05 L 5.89 53.13" />
    <path stroke-linejoin="miter" stroke-linecap="butt" stroke-width="2.365591397849462" stroke="#e6e6e6" fill="none" fill-rule="evenodd" d="M 0.03 53.13 L 11.75 53.13" />
    <path stroke-linejoin="miter" stroke-linecap="butt" stroke-width="2.365591397849462" stroke="#e6e6e6" fill="none" fill-rule="evenodd" d="M 31.66 38.59 L 31.66 42.02" />
    <path stroke-linejoin="miter" stroke-linecap="butt" stroke-width="2.365591397849462" stroke="#e6e6e6" fill="none" fill-rule="evenodd" d="M 26.78 36.08 L 23.54 39.42" />
    <path stroke-linejoin="miter" stroke-linecap="butt" stroke-width="2.365591397849462" stroke="#e6e6e6" fill="none" fill-rule="evenodd" d="M 36.54 36.08 L 39.78 39.42" />
    <path stroke-linejoin="miter" stroke-linecap="butt" stroke-width="2.365591397849462" stroke="#e6e6e6" fill="none" fill-rule="evenodd" d="M 28.11 29.3 C 28.11 31.49 29.8 33.28 31.89 33.28 C 33.98 33.28 35.67 31.49 35.67 29.3" />
</svg>