<?xml version="1.0" encoding="utf-8"?>
<!-- Generator: Avocode 2.6.0 - http://avocode.com -->
<svg height="58" width="37" xmlns:xlink="http://www.w3.org/1999/xlink" xmlns="http://www.w3.org/2000/svg" viewBox="0 0 37 58">
    <path stroke-linejoin="miter" stroke-linecap="butt" stroke-width="2.391304347826087" stroke="#e6e6e6" fill="none" fill-rule="evenodd" d="M 18.53 23.34 L 29.92 9.25 L 25.54 2.18 L 18.53 2.18 L 11.53 2.18 L 7.14 9.25 L 18.53 23.34 Z M 18.53 23.34" />
    <path stroke-linejoin="miter" stroke-linecap="butt" stroke-width="2.391304347826087" stroke="#e6e6e6" fill="none" fill-rule="evenodd" d="M 7.14 9.25 L 29.92 9.25" />
    <path stroke-linejoin="miter" stroke-linecap="butt" stroke-width="2.391304347826087" stroke="#e6e6e6" fill="none" fill-rule="evenodd" d="M 18.53 2.18 L 14.47 9.25 L 18.53 23.34" />
    <path stroke-linejoin="miter" stroke-linecap="butt" stroke-width="2.391304347826087" stroke="#e6e6e6" fill="none" fill-rule="evenodd" d="M 18.53 2.18 L 22.6 9.25 L 18.53 23.34" />
    <path stroke-linejoin="miter" stroke-linecap="butt" stroke-width="2.391304347826087" stroke="#e6e6e6" fill="none" fill-rule="evenodd" d="M 13.57 23.41 C 6.5 25.52 1.36 32.01 1.36 39.7 C 1.36 49.1 9.05 56.72 18.53 56.72 C 28.02 56.72 35.71 49.1 35.71 39.7 C 35.71 32.01 30.56 25.52 23.5 23.41" />
</svg>