<?xml version="1.0" encoding="utf-8"?>
<!-- Generator: Avocode 2.6.0 - http://avocode.com -->
<svg height="26" width="23" xmlns:xlink="http://www.w3.org/1999/xlink" xmlns="http://www.w3.org/2000/svg" viewBox="0 0 23 26">
    <path stroke-linejoin="miter" stroke-linecap="butt" stroke-width="1.304347826086957" stroke="#e6e6e6" fill="none" fill-rule="evenodd" d="M 5.74 12.07 C 4.78 13.31 2.97 16 2.92 18.85 L 6.31 17.28" />
    <path stroke-linejoin="miter" stroke-linecap="butt" stroke-width="1.304347826086957" stroke="#e6e6e6" fill="none" fill-rule="evenodd" d="M 17.42 11.98 C 18.36 13.18 20.26 15.93 20.31 18.85 L 16.92 17.28" />
    <path stroke-linejoin="miter" stroke-linecap="butt" stroke-width="1.304347826086957" stroke="#e6e6e6" fill="none" fill-rule="evenodd" d="M 11.6 -1.61 C 9.14 -1.61 7.34 2.7 7.34 4.97 L 8.68 17.44 C 8.69 17.67 8.88 17.85 9.11 17.85 L 14.09 17.85 C 14.32 17.85 14.51 17.67 14.52 17.44 L 15.86 4.94 C 15.86 2.7 14.06 -1.61 11.6 -1.61 L 11.6 -1.61 Z M 11.6 -1.61" />
    <path stroke-linejoin="miter" stroke-linecap="butt" stroke-width="1.304347826086957" stroke="#e6e6e6" fill="none" fill-rule="evenodd" d="M 11.6 8.23 C 12.54 8.23 13.29 7.46 13.29 6.51 C 13.29 5.57 12.54 4.8 11.6 4.8 C 10.66 4.8 9.91 5.57 9.91 6.51 C 9.91 7.46 10.66 8.23 11.6 8.23 Z M 11.6 8.23" />
    <path stroke-linejoin="miter" stroke-linecap="butt" stroke-width="1.304347826086957" stroke="#e6e6e6" fill="none" fill-rule="evenodd" d="M 12.85 20.17 C 12.5 21.25 12.07 22.08 11.6 22.08 C 11.13 22.08 10.7 21.25 10.35 20.17 C 9.83 20.42 9.5 20.88 9.5 21.65 C 9.5 22.94 10.44 28.09 11.6 28.09 C 12.76 28.09 13.7 22.94 13.7 21.65 C 13.7 20.88 13.36 20.42 12.85 20.17 L 12.85 20.17 Z M 12.85 20.17" />
</svg>