<?xml version="1.0" encoding="utf-8"?>
<!-- Generator: Avocode 2.6.0 - http://avocode.com -->
<svg height="30" width="18" xmlns:xlink="http://www.w3.org/1999/xlink" xmlns="http://www.w3.org/2000/svg" viewBox="0 0 18 30">
    <path stroke-linejoin="miter" stroke-linecap="butt" stroke-width="1.237113402061856" stroke="#ffffff" fill="none" fill-rule="evenodd" d="M 17.08 9.03 C 17.08 13.47 9.14 25.66 9.14 25.66 C 9.14 25.66 1.2 13.47 1.2 9.03 C 1.2 4.6 4.76 1.01 9.14 1.01 C 13.53 1.01 17.08 4.6 17.08 9.03 L 17.08 9.03 Z M 17.08 9.03" />
    <path stroke-linejoin="miter" stroke-linecap="butt" stroke-width="1.237113402061856" stroke="#ffffff" fill="none" fill-rule="evenodd" d="M 9.14 10.64 C 10.5 10.64 11.59 9.53 11.59 8.16 C 11.59 6.79 10.5 5.68 9.14 5.68 C 7.79 5.68 6.69 6.79 6.69 8.16 C 6.69 9.53 7.79 10.64 9.14 10.64 Z M 9.14 10.64" />
    <path stroke-linejoin="miter" stroke-linecap="butt" stroke-width="1.237113402061856" stroke="#ffffff" fill="none" fill-rule="evenodd" d="M 12.82 24.18 C 15.1 24.64 16.64 25.49 16.64 26.48 C 16.64 27.94 13.29 29.12 9.14 29.12 C 5 29.12 1.64 27.94 1.64 26.48 C 1.64 25.49 3.2 24.63 5.5 24.18" />
</svg>