<?xml version="1.0" encoding="utf-8"?>
<!-- Generator: Avocode 2.6.0 - http://avocode.com -->
<svg height="32" width="32" xmlns:xlink="http://www.w3.org/1999/xlink" xmlns="http://www.w3.org/2000/svg" viewBox="0 0 32 32">
    <path fill="#ffffff" fill-rule="evenodd" d="M 16.22 0.1 C 7.52 0.1 0.46 7.16 0.46 15.86 C 0.46 24.56 7.52 31.62 16.22 31.62 C 24.93 31.62 31.98 24.56 31.98 15.86 C 31.98 7.16 24.93 0.1 16.22 0.1 L 16.22 0.1 Z M 20.39 15.79 L 17.66 15.79 L 17.66 25.53 L 13.62 25.53 L 13.62 15.79 L 11.7 15.79 L 11.7 12.36 L 13.62 12.36 L 13.62 10.13 C 13.62 8.54 14.38 6.05 17.7 6.05 L 20.7 6.06 L 20.7 9.4 L 18.52 9.4 C 18.17 9.4 17.66 9.58 17.66 10.33 L 17.66 12.36 L 20.75 12.36 L 20.39 15.79 L 20.39 15.79 Z M 20.39 15.79" />
</svg>