<?xml version="1.0" encoding="utf-8"?>
<!-- Generator: Avocode 2.6.0 - http://avocode.com -->
<svg height="39" width="39" xmlns:xlink="http://www.w3.org/1999/xlink" xmlns="http://www.w3.org/2000/svg" viewBox="0 0 39 39">
    <path stroke-linejoin="miter" stroke-linecap="butt" stroke-width="1.6" stroke="#000000" fill="none" fill-rule="evenodd" d="M 12.28 29.77 C 13 29.51 14.15 26.8 14.15 26.8 C 14.03 26.74 4.51 30.16 1.05 33.52 C 0.9 33.67 0.81 33.87 0.81 34.08 L 0.81 36.83 C 0.81 37.26 1.16 37.61 1.59 37.61 L 19.2 37.61 C 17.86 30.71 12.28 29.77 12.28 29.77 L 12.28 29.77 Z M 12.28 29.77" />
    <path stroke-linejoin="miter" stroke-linecap="butt" stroke-width="1.6" stroke="#000000" fill="none" fill-rule="evenodd" d="M 37.35 33.52 C 33.96 30.23 24.36 26.74 24.25 26.8 L 24.25 26.8 C 24.25 26.8 25.4 29.51 26.11 29.77 C 26.11 29.77 20.54 30.71 19.2 37.61 L 36.81 37.61 C 37.23 37.61 37.58 37.26 37.58 36.83 L 37.58 34.08 C 37.58 33.87 37.5 33.67 37.35 33.52 L 37.35 33.52 Z M 37.35 33.52" />
    <path stroke-linejoin="miter" stroke-linecap="butt" stroke-width="1.6" stroke="#000000" fill="none" fill-rule="evenodd" d="M 23.42 24 C 23.5 23.84 23.47 22.88 23.47 22.69 C 24.95 21.23 25.94 19.13 26.1 17.03 L 26.12 17.03 C 27.58 17.03 27.99 14.91 26.67 14.29 C 26.94 13.44 27.09 12.53 27.09 11.59 C 27.09 10.72 26.97 9.89 26.74 9.11 C 27.04 9.72 27.24 10.28 27.41 10.66 C 27.52 10.89 27.93 10.66 27.93 10.66 C 28.73 7.19 25.82 5.03 25.82 5.03 C 28 5.16 28.77 6.15 28.77 6.15 C 26.91 2.95 24.45 3.8 24.44 3.8 C 21.07 -1.01 13.6 1.65 13.6 1.65 C 15.65 1.27 17.43 2.45 18.85 2.6 C 11.96 2.26 10.15 8.85 10.15 8.85 C 10.41 8.01 11.39 7.41 12.63 6.98 C 11.81 8.3 11.32 9.88 11.32 11.59 C 11.32 12.53 11.48 13.44 11.75 14.29 C 10.42 14.91 10.85 17.03 12.3 17.03 L 12.32 17.03 C 12.48 19.13 13.47 21.23 14.95 22.69 C 14.95 22.89 14.92 23.84 15 24" />
</svg>