<?xml version="1.0" encoding="utf-8"?>
<!-- Generator: Avocode 2.6.0 - http://avocode.com -->
<svg height="38" width="36" xmlns:xlink="http://www.w3.org/1999/xlink" xmlns="http://www.w3.org/2000/svg" viewBox="0 0 36 38">
    <path stroke-linejoin="miter" stroke-linecap="butt" stroke-width="1.6" stroke="#000000" fill="none" fill-rule="evenodd" d="M 17.43 36.49 C 26.18 36.49 33.27 29.4 33.27 20.65 C 33.27 11.9 26.18 4.81 17.43 4.81 C 8.68 4.81 1.59 11.9 1.59 20.65 C 1.59 29.4 8.68 36.49 17.43 36.49 Z M 17.43 36.49" />
    <path stroke-linejoin="miter" stroke-linecap="butt" stroke-width="1.6" stroke="#000000" fill="none" fill-rule="evenodd" d="M 17.43 22.5 C 18.45 22.5 19.28 21.67 19.28 20.65 C 19.28 19.63 18.45 18.8 17.43 18.8 C 16.41 18.8 15.58 19.63 15.58 20.65 C 15.58 21.67 16.41 22.5 17.43 22.5 Z M 17.43 22.5" />
    <path stroke-linejoin="miter" stroke-linecap="butt" stroke-width="1.6" stroke="#000000" fill="none" fill-rule="evenodd" d="M 17.43 18.8 L 17.43 8.71" />
    <path stroke-linejoin="miter" stroke-linecap="butt" stroke-width="1.6" stroke="#000000" fill="none" fill-rule="evenodd" d="M 17.43 4.81 L 17.43 0.9" />
    <path stroke-linejoin="miter" stroke-linecap="butt" stroke-width="1.6" stroke="#000000" fill="none" fill-rule="evenodd" d="M 28.63 9.45 L 33.14 4.94" />
    <path stroke-linejoin="miter" stroke-linecap="butt" stroke-width="1.6" stroke="#000000" fill="none" fill-rule="evenodd" d="M 31.61 3.41 L 34.67 6.47" />
</svg>