<?xml version="1.0" encoding="utf-8"?>
<!-- Generator: Avocode 2.6.0 - http://avocode.com -->
<svg height="30" width="30" xmlns:xlink="http://www.w3.org/1999/xlink" xmlns="http://www.w3.org/2000/svg" viewBox="0 0 30 30">
    <path stroke-linejoin="miter" stroke-linecap="butt" stroke-width="1.237113402061856" stroke="#ffffff" fill="none" fill-rule="evenodd" d="M 9.5 23.02 C 10.05 22.81 10.94 20.72 10.94 20.72 C 10.85 20.68 3.49 23.32 0.81 25.92 C 0.69 26.03 0.63 26.19 0.63 26.35 L 0.63 28.48 C 0.63 28.81 0.9 29.08 1.23 29.08 L 14.84 29.08 C 13.81 23.75 9.5 23.02 9.5 23.02 L 9.5 23.02 Z M 9.5 23.02" />
    <path stroke-linejoin="miter" stroke-linecap="butt" stroke-width="1.237113402061856" stroke="#ffffff" fill="none" fill-rule="evenodd" d="M 28.88 25.92 C 26.26 23.38 18.83 20.68 18.75 20.72 L 18.75 20.72 C 18.75 20.72 19.64 22.81 20.19 23.02 C 20.19 23.02 15.88 23.75 14.84 29.08 L 28.46 29.08 C 28.79 29.08 29.06 28.81 29.06 28.48 L 29.06 26.35 C 29.06 26.19 28.99 26.03 28.88 25.92 L 28.88 25.92 Z M 28.88 25.92" />
    <path stroke-linejoin="miter" stroke-linecap="butt" stroke-width="1.237113402061856" stroke="#ffffff" fill="none" fill-rule="evenodd" d="M 18.11 18.55 C 18.17 18.43 18.15 17.69 18.15 17.54 C 19.29 16.42 20.06 14.79 20.18 13.17 L 20.2 13.17 C 21.32 13.17 21.64 11.53 20.62 11.05 C 20.83 10.39 20.95 9.69 20.95 8.96 C 20.95 8.29 20.85 7.65 20.68 7.04 C 20.91 7.51 21.06 7.95 21.19 8.24 C 21.28 8.42 21.6 8.24 21.6 8.24 C 22.22 5.56 19.97 3.89 19.97 3.89 C 21.65 3.99 22.25 4.76 22.25 4.76 C 20.81 2.28 18.91 2.94 18.89 2.94 C 16.29 -0.78 10.52 1.28 10.52 1.28 C 12.1 0.98 13.48 1.89 14.57 2.01 C 9.25 1.75 7.85 6.84 7.85 6.84 C 8.05 6.19 8.81 5.73 9.77 5.4 C 9.13 6.42 8.76 7.64 8.76 8.96 C 8.76 9.69 8.87 10.39 9.08 11.05 C 8.06 11.53 8.39 13.17 9.51 13.17 L 9.53 13.17 C 9.65 14.79 10.42 16.42 11.56 17.54 C 11.56 17.7 11.53 18.43 11.6 18.56" />
</svg>