<?xml version="1.0" encoding="utf-8"?>
<!-- Generator: Avocode 2.6.0 - http://avocode.com -->
<svg height="32" width="32" xmlns:xlink="http://www.w3.org/1999/xlink" xmlns="http://www.w3.org/2000/svg" viewBox="0 0 32 32">
    <path fill="#ffffff" fill-rule="evenodd" d="M 16.22 0.1 C 7.52 0.1 0.46 7.16 0.46 15.86 C 0.46 24.56 7.52 31.62 16.22 31.62 C 24.93 31.62 31.98 24.56 31.98 15.86 C 31.98 7.16 24.93 0.1 16.22 0.1 L 16.22 0.1 Z M 24.16 12.68 C 24.17 12.85 24.17 13.02 24.17 13.2 C 24.17 18.45 20.18 24.5 12.87 24.5 C 10.63 24.5 8.54 23.84 6.78 22.71 C 7.1 22.75 7.41 22.77 7.73 22.77 C 9.59 22.77 11.31 22.13 12.66 21.07 C 10.93 21.04 9.46 19.89 8.95 18.31 C 9.2 18.36 9.45 18.38 9.7 18.38 C 10.06 18.38 10.41 18.33 10.75 18.24 C 8.93 17.88 7.56 16.27 7.56 14.35 C 7.56 14.33 7.56 14.31 7.56 14.3 C 8.1 14.59 8.71 14.77 9.36 14.79 C 8.3 14.08 7.59 12.87 7.59 11.49 C 7.59 10.76 7.79 10.08 8.13 9.49 C 10.09 11.89 13.02 13.47 16.32 13.64 C 16.25 13.35 16.22 13.05 16.22 12.73 C 16.22 10.54 17.99 8.76 20.19 8.76 C 21.33 8.76 22.36 9.25 23.09 10.02 C 23.99 9.84 24.84 9.51 25.61 9.05 C 25.31 9.98 24.68 10.76 23.86 11.25 C 24.67 11.15 25.43 10.94 26.14 10.63 C 25.61 11.42 24.94 12.12 24.16 12.68 L 24.16 12.68 Z M 24.16 12.68" />
</svg>