<?xml version="1.0" encoding="utf-8"?>
<!-- Generator: Avocode 2.6.0 - http://avocode.com -->
<svg height="32" width="18" xmlns:xlink="http://www.w3.org/1999/xlink" xmlns="http://www.w3.org/2000/svg" viewBox="0 0 18 32">
    <path stroke-linejoin="miter" stroke-linecap="butt" stroke-width="1.25" stroke="#ffffff" fill="none" fill-rule="evenodd" d="M 14.57 1.59 L 3.4 1.59 C 2.01 1.59 0.86 2.74 0.86 4.13 L 0.86 27.85 C 0.86 29.24 2.01 30.39 3.4 30.39 L 14.57 30.39 C 15.97 30.39 17.11 29.24 17.11 27.85 L 17.11 4.13 C 17.11 2.74 15.97 1.59 14.57 1.59 L 14.57 1.59 Z M 14.57 1.59" />
    <path stroke-linejoin="miter" stroke-linecap="butt" stroke-width="1.25" stroke="#ffffff" fill="none" fill-rule="evenodd" d="M 8.99 28.35 C 9.58 28.35 10.06 27.88 10.06 27.29 C 10.06 26.7 9.58 26.22 8.99 26.22 C 8.4 26.22 7.92 26.7 7.92 27.29 C 7.92 27.88 8.4 28.35 8.99 28.35 Z M 8.99 28.35" />
    <path stroke-linejoin="miter" stroke-linecap="butt" stroke-width="1.25" stroke="#ffffff" fill="none" fill-rule="evenodd" d="M 0.88 5.38 L 17.13 5.38 L 17.13 24.13 L 0.88 24.13 L 0.88 5.38 Z M 0.88 5.38" />
</svg>