<?xml version="1.0" encoding="utf-8"?>
<!-- Generator: Avocode 2.6.0 - http://avocode.com -->
<svg height="32" width="32" xmlns:xlink="http://www.w3.org/1999/xlink" xmlns="http://www.w3.org/2000/svg" viewBox="0 0 32 32">
    <path fill="#ffffff" fill-rule="evenodd" d="M 16.22 0.1 C 7.52 0.1 0.46 7.16 0.46 15.86 C 0.46 24.56 7.52 31.62 16.22 31.62 C 24.92 31.62 31.98 24.56 31.98 15.86 C 31.98 7.16 24.92 0.1 16.22 0.1 L 16.22 0.1 Z M 25 23.51 C 25 24.22 24.42 24.78 23.7 24.78 L 8.71 24.78 C 7.99 24.78 7.41 24.22 7.41 23.51 L 7.41 8.35 C 7.41 7.65 7.99 7.08 8.71 7.08 L 23.7 7.08 C 24.42 7.08 25 7.65 25 8.35 L 25 23.51 L 25 23.51 Z M 25 23.51" />
    <path fill="#ffffff" fill-rule="evenodd" d="M 19.26 13.72 C 17.85 13.72 17.22 14.5 16.87 15.04 L 16.87 15.07 L 16.85 15.07 C 16.86 15.06 16.87 15.05 16.87 15.04 L 16.87 13.91 L 14.21 13.91 C 14.25 14.66 14.21 21.9 14.21 21.9 L 16.87 21.9 L 16.87 17.44 C 16.87 17.2 16.89 16.96 16.96 16.79 C 17.15 16.31 17.59 15.82 18.32 15.82 C 19.28 15.82 19.67 16.55 19.67 17.62 L 19.67 21.9 L 22.32 21.9 L 22.32 17.32 C 22.32 14.86 21.01 13.72 19.26 13.72 L 19.26 13.72 Z M 19.26 13.72" />
    <path fill="#ffffff" fill-rule="evenodd" d="M 11.43 10.06 C 10.52 10.06 9.93 10.65 9.93 11.44 C 9.93 12.2 10.51 12.82 11.4 12.82 L 11.42 12.82 C 12.34 12.82 12.92 12.2 12.92 11.44 C 12.9 10.65 12.34 10.06 11.43 10.06 L 11.43 10.06 Z M 11.43 10.06" />
    <path fill="#ffffff" fill-rule="evenodd" d="M 10.09 13.91 L 12.74 13.91 L 12.74 21.9 L 10.09 21.9 L 10.09 13.91 Z M 10.09 13.91" />
</svg>