<?xml version="1.0" encoding="utf-8"?>
<!-- Generator: Avocode 2.6.0 - http://avocode.com -->
<svg height="32" width="33" xmlns:xlink="http://www.w3.org/1999/xlink" xmlns="http://www.w3.org/2000/svg" viewBox="0 0 33 32">
    <path fill="#ffffff" fill-rule="evenodd" d="M 16.47 0.01 C 7.67 0.01 0.54 7.07 0.54 15.77 C 0.54 24.47 7.67 31.53 16.47 31.53 C 25.27 31.53 32.41 24.47 32.41 15.77 C 32.41 7.07 25.27 0.01 16.47 0.01 L 16.47 0.01 Z M 25.63 19.12 C 25.18 20.66 24.33 22.09 23.13 23.18 C 22 24.21 20.59 24.91 19.09 25.25 C 17.44 25.63 15.69 25.64 14.04 25.2 C 12.74 24.86 11.51 24.24 10.45 23.41 C 9.34 22.53 8.42 21.41 7.77 20.15 C 6.78 18.22 6.48 15.96 6.92 13.84 C 7.09 12.99 7.38 12.16 7.77 11.39 C 8.91 9.14 10.96 7.36 13.37 6.54 C 15.5 5.81 17.89 5.83 20.01 6.6 C 21.19 7.03 22.27 7.7 23.19 8.55 C 22.88 8.88 22.55 9.18 22.23 9.51 C 21.63 10.1 21.02 10.7 20.41 11.3 C 19.81 10.73 19.08 10.3 18.29 10.06 C 17.35 9.78 16.34 9.75 15.39 9.95 C 14.27 10.18 13.24 10.76 12.44 11.57 C 11.8 12.21 11.3 13.01 11.01 13.87 C 10.58 15.09 10.59 16.45 11.01 17.67 C 11.42 18.87 12.22 19.94 13.27 20.67 C 13.93 21.13 14.68 21.45 15.47 21.61 C 16.24 21.76 17.04 21.74 17.82 21.61 C 18.59 21.48 19.34 21.2 19.99 20.76 C 21.03 20.08 21.76 18.97 21.97 17.75 C 20.18 17.75 18.39 17.75 16.59 17.75 C 16.59 16.48 16.59 15.21 16.59 13.94 C 19.69 13.94 22.78 13.94 25.88 13.94 C 26.19 15.66 26.12 17.45 25.63 19.12 L 25.63 19.12 Z M 25.63 19.12" />
</svg>